<mxfile host="Electron" agent="Mozilla/5.0 (Windows NT 10.0; Win64; x64) AppleWebKit/537.36 (KHTML, like Gecko) draw.io/24.7.17 Chrome/128.0.6613.36 Electron/32.0.1 Safari/537.36" version="24.7.17">
  <diagram name="PÃ¡gina-1" id="suDs9cZ8lpwEUTx6rQ9a">
    <mxGraphModel dx="2049" dy="1206" grid="1" gridSize="10" guides="1" tooltips="1" connect="1" arrows="1" fold="1" page="1" pageScale="1" pageWidth="827" pageHeight="1169" math="0" shadow="0">
      <root>
        <mxCell id="0" />
        <mxCell id="1" parent="0" />
        <mxCell id="hk8a2O4gQxyiNjNptd78-115" value="&lt;h1 style=&quot;margin-top: 0px;&quot;&gt;Diagrama para sistema de medicion. BATER-IA&lt;/h1&gt;" style="text;html=1;whiteSpace=wrap;overflow=hidden;rounded=0;align=center;" parent="1" vertex="1">
          <mxGeometry x="570" y="30" width="480" height="70" as="geometry" />
        </mxCell>
        <mxCell id="hk8a2O4gQxyiNjNptd78-116" value="V 3.0&amp;nbsp; &amp;nbsp; &amp;nbsp; &amp;nbsp; 06 NOV 2024" style="text;html=1;align=center;verticalAlign=middle;whiteSpace=wrap;rounded=0;" parent="1" vertex="1">
          <mxGeometry x="1155" y="30" width="130" height="30" as="geometry" />
        </mxCell>
        <mxCell id="hk8a2O4gQxyiNjNptd78-117" value="Angel Habid Navarro Mendez" style="text;html=1;align=center;verticalAlign=middle;whiteSpace=wrap;rounded=0;" parent="1" vertex="1">
          <mxGeometry x="1140" y="50" width="160" height="30" as="geometry" />
        </mxCell>
        <mxCell id="hk8a2O4gQxyiNjNptd78-13" value="" style="group" parent="1" vertex="1" connectable="0">
          <mxGeometry x="941.25" y="340" width="40" height="90" as="geometry" />
        </mxCell>
        <mxCell id="hk8a2O4gQxyiNjNptd78-7" value="" style="rounded=0;whiteSpace=wrap;html=1;container=0;" parent="hk8a2O4gQxyiNjNptd78-13" vertex="1">
          <mxGeometry x="13.57" width="12.86" height="6.92" as="geometry" />
        </mxCell>
        <mxCell id="hk8a2O4gQxyiNjNptd78-4" value="" style="verticalLabelPosition=bottom;shadow=0;dashed=0;align=center;fillColor=strokeColor;html=1;verticalAlign=top;strokeWidth=1;shape=mxgraph.electrical.miscellaneous.monocell_battery;direction=north;container=0;" parent="hk8a2O4gQxyiNjNptd78-13" vertex="1">
          <mxGeometry x="2.8571428571428568" y="6.923076923076923" width="34.28571428571428" height="83.07692307692308" as="geometry" />
        </mxCell>
        <mxCell id="hk8a2O4gQxyiNjNptd78-5" value="" style="rounded=0;whiteSpace=wrap;html=1;gradientColor=default;fillColor=none;container=0;" parent="hk8a2O4gQxyiNjNptd78-13" vertex="1">
          <mxGeometry y="6.923076923076923" width="40" height="83.07692307692308" as="geometry" />
        </mxCell>
        <mxCell id="hk8a2O4gQxyiNjNptd78-22" value="" style="group" parent="1" vertex="1" connectable="0">
          <mxGeometry x="941.25" y="590" width="40" height="90" as="geometry" />
        </mxCell>
        <mxCell id="hk8a2O4gQxyiNjNptd78-23" value="" style="rounded=0;whiteSpace=wrap;html=1;container=0;" parent="hk8a2O4gQxyiNjNptd78-22" vertex="1">
          <mxGeometry x="13.57" width="12.86" height="6.92" as="geometry" />
        </mxCell>
        <mxCell id="hk8a2O4gQxyiNjNptd78-24" value="" style="verticalLabelPosition=bottom;shadow=0;dashed=0;align=center;fillColor=strokeColor;html=1;verticalAlign=top;strokeWidth=1;shape=mxgraph.electrical.miscellaneous.monocell_battery;direction=north;container=0;" parent="hk8a2O4gQxyiNjNptd78-22" vertex="1">
          <mxGeometry x="2.8571428571428568" y="6.923076923076923" width="34.28571428571428" height="83.07692307692308" as="geometry" />
        </mxCell>
        <mxCell id="hk8a2O4gQxyiNjNptd78-25" value="" style="rounded=0;whiteSpace=wrap;html=1;gradientColor=default;fillColor=none;container=0;" parent="hk8a2O4gQxyiNjNptd78-22" vertex="1">
          <mxGeometry y="6.923076923076923" width="40" height="83.07692307692308" as="geometry" />
        </mxCell>
        <mxCell id="hk8a2O4gQxyiNjNptd78-36" value="" style="group" parent="1" vertex="1" connectable="0">
          <mxGeometry x="941.25" y="870" width="40" height="90" as="geometry" />
        </mxCell>
        <mxCell id="hk8a2O4gQxyiNjNptd78-37" value="" style="rounded=0;whiteSpace=wrap;html=1;container=0;" parent="hk8a2O4gQxyiNjNptd78-36" vertex="1">
          <mxGeometry x="13.57" width="12.86" height="6.92" as="geometry" />
        </mxCell>
        <mxCell id="hk8a2O4gQxyiNjNptd78-38" value="" style="verticalLabelPosition=bottom;shadow=0;dashed=0;align=center;fillColor=strokeColor;html=1;verticalAlign=top;strokeWidth=1;shape=mxgraph.electrical.miscellaneous.monocell_battery;direction=north;container=0;" parent="hk8a2O4gQxyiNjNptd78-36" vertex="1">
          <mxGeometry x="2.8571428571428568" y="6.923076923076923" width="34.28571428571428" height="83.07692307692308" as="geometry" />
        </mxCell>
        <mxCell id="hk8a2O4gQxyiNjNptd78-39" value="" style="rounded=0;whiteSpace=wrap;html=1;gradientColor=default;fillColor=none;container=0;" parent="hk8a2O4gQxyiNjNptd78-36" vertex="1">
          <mxGeometry y="6.923076923076923" width="40" height="83.07692307692308" as="geometry" />
        </mxCell>
        <mxCell id="hk8a2O4gQxyiNjNptd78-54" style="edgeStyle=orthogonalEdgeStyle;rounded=0;orthogonalLoop=1;jettySize=auto;html=1;entryX=0;entryY=0.5;entryDx=0;entryDy=0;endArrow=none;endFill=0;" parent="1" source="hk8a2O4gQxyiNjNptd78-5" edge="1">
          <mxGeometry relative="1" as="geometry">
            <mxPoint x="961.25" y="455" as="targetPoint" />
          </mxGeometry>
        </mxCell>
        <mxCell id="hk8a2O4gQxyiNjNptd78-56" value="&lt;font style=&quot;font-size: 9px;&quot;&gt;GND&lt;/font&gt;" style="pointerEvents=1;verticalLabelPosition=bottom;shadow=0;dashed=0;align=center;html=1;verticalAlign=top;shape=mxgraph.electrical.signal_sources.signal_ground;" parent="1" vertex="1">
          <mxGeometry x="946.25" y="450" width="30" height="20" as="geometry" />
        </mxCell>
        <mxCell id="hk8a2O4gQxyiNjNptd78-67" value="&lt;font style=&quot;font-size: 9px;&quot;&gt;GND&lt;/font&gt;" style="pointerEvents=1;verticalLabelPosition=bottom;shadow=0;dashed=0;align=center;html=1;verticalAlign=top;shape=mxgraph.electrical.signal_sources.signal_ground;" parent="1" vertex="1">
          <mxGeometry x="946.25" y="690" width="30" height="20" as="geometry" />
        </mxCell>
        <mxCell id="hk8a2O4gQxyiNjNptd78-69" style="edgeStyle=orthogonalEdgeStyle;rounded=0;orthogonalLoop=1;jettySize=auto;html=1;exitX=0.5;exitY=1;exitDx=0;exitDy=0;entryX=0.5;entryY=0;entryDx=0;entryDy=0;entryPerimeter=0;startArrow=none;startFill=0;endArrow=none;endFill=0;" parent="1" source="hk8a2O4gQxyiNjNptd78-25" target="hk8a2O4gQxyiNjNptd78-67" edge="1">
          <mxGeometry relative="1" as="geometry">
            <mxPoint x="962" y="710" as="targetPoint" />
          </mxGeometry>
        </mxCell>
        <mxCell id="hk8a2O4gQxyiNjNptd78-89" value="" style="edgeStyle=orthogonalEdgeStyle;rounded=0;orthogonalLoop=1;jettySize=auto;html=1;fillColor=#fff2cc;strokeColor=#000000;exitX=0.5;exitY=1;exitDx=0;exitDy=0;entryX=0.5;entryY=0;entryDx=0;entryDy=0;entryPerimeter=0;endArrow=none;endFill=0;" parent="1" source="hk8a2O4gQxyiNjNptd78-39" target="rjjdqqys_Oreud0CuxLj-54" edge="1">
          <mxGeometry x="0.4637" y="-12" relative="1" as="geometry">
            <mxPoint x="591.25" y="1325" as="targetPoint" />
            <mxPoint y="-1" as="offset" />
            <mxPoint x="946.25" y="1080" as="sourcePoint" />
          </mxGeometry>
        </mxCell>
        <mxCell id="rjjdqqys_Oreud0CuxLj-1" value="" style="html=1;shape=mxgraph.electrical.electro-mechanical.twoWaySwitch;aspect=fixed;elSwitchState=2;direction=west;flipV=1;fillColor=#ffe6cc;strokeColor=#d79b00;" parent="1" vertex="1">
          <mxGeometry x="1065" y="323" width="75" height="26" as="geometry" />
        </mxCell>
        <mxCell id="rjjdqqys_Oreud0CuxLj-4" value="" style="shape=mxgraph.sysml.x;fillColor=#ffe6cc;strokeColor=#d79b00;" parent="1" vertex="1">
          <mxGeometry x="1060" y="321" width="10" height="10" as="geometry" />
        </mxCell>
        <mxCell id="rjjdqqys_Oreud0CuxLj-6" value="" style="html=1;shape=mxgraph.electrical.electro-mechanical.twoWaySwitch;aspect=fixed;elSwitchState=2;direction=west;flipV=1;fillColor=#ffe6cc;strokeColor=#d79b00;" parent="1" vertex="1">
          <mxGeometry x="1065" y="563" width="75" height="26" as="geometry" />
        </mxCell>
        <mxCell id="rjjdqqys_Oreud0CuxLj-7" value="" style="shape=mxgraph.sysml.x;fillColor=#ffe6cc;strokeColor=#d79b00;" parent="1" vertex="1">
          <mxGeometry x="1060" y="561" width="10" height="10" as="geometry" />
        </mxCell>
        <mxCell id="rjjdqqys_Oreud0CuxLj-8" value="" style="html=1;shape=mxgraph.electrical.electro-mechanical.twoWaySwitch;aspect=fixed;elSwitchState=2;direction=west;flipV=1;fillColor=#ffe6cc;strokeColor=#d79b00;" parent="1" vertex="1">
          <mxGeometry x="1067.5" y="882" width="75" height="26" as="geometry" />
        </mxCell>
        <mxCell id="rjjdqqys_Oreud0CuxLj-9" value="" style="shape=mxgraph.sysml.x;fillColor=#ffe6cc;strokeColor=#d79b00;" parent="1" vertex="1">
          <mxGeometry x="1065" y="881" width="10" height="10" as="geometry" />
        </mxCell>
        <mxCell id="rjjdqqys_Oreud0CuxLj-54" value="&lt;font style=&quot;font-size: 9px;&quot;&gt;GND&lt;/font&gt;" style="pointerEvents=1;verticalLabelPosition=bottom;shadow=0;dashed=0;align=center;html=1;verticalAlign=top;shape=mxgraph.electrical.signal_sources.signal_ground;" parent="1" vertex="1">
          <mxGeometry x="946.25" y="970" width="30" height="20" as="geometry" />
        </mxCell>
        <mxCell id="rjjdqqys_Oreud0CuxLj-55" style="edgeStyle=orthogonalEdgeStyle;rounded=0;orthogonalLoop=1;jettySize=auto;html=1;exitX=1;exitY=0;exitDx=0;exitDy=0;entryX=0.598;entryY=0.502;entryDx=0;entryDy=0;entryPerimeter=0;" parent="1" edge="1">
          <mxGeometry relative="1" as="geometry">
            <mxPoint x="621.25" y="860" as="sourcePoint" />
            <mxPoint x="621.3020000000001" y="859.8499999999999" as="targetPoint" />
          </mxGeometry>
        </mxCell>
        <mxCell id="jncj1lacjCK77p8x0OnY-25" value="K1" style="text;html=1;align=center;verticalAlign=middle;whiteSpace=wrap;rounded=0;" vertex="1" parent="1">
          <mxGeometry x="783.88" y="293" width="60" height="30" as="geometry" />
        </mxCell>
        <mxCell id="jncj1lacjCK77p8x0OnY-49" style="edgeStyle=orthogonalEdgeStyle;rounded=0;orthogonalLoop=1;jettySize=auto;html=1;opacity=70;exitX=1;exitY=0.5;exitDx=0;exitDy=0;" edge="1" parent="1" source="jncj1lacjCK77p8x0OnY-110" target="jncj1lacjCK77p8x0OnY-45">
          <mxGeometry relative="1" as="geometry" />
        </mxCell>
        <mxCell id="jncj1lacjCK77p8x0OnY-62" style="edgeStyle=orthogonalEdgeStyle;rounded=0;orthogonalLoop=1;jettySize=auto;html=1;entryX=0;entryY=0.5;entryDx=0;entryDy=0;fillColor=#f8cecc;strokeColor=#be0a04;dashed=1;exitX=1;exitY=0.5;exitDx=0;exitDy=0;" edge="1" parent="1" source="jncj1lacjCK77p8x0OnY-110" target="jncj1lacjCK77p8x0OnY-46">
          <mxGeometry relative="1" as="geometry" />
        </mxCell>
        <mxCell id="jncj1lacjCK77p8x0OnY-63" value="&lt;b&gt;OPTIONAL:&lt;/b&gt;&lt;div&gt;The system could be connected&lt;/div&gt;&lt;div&gt;to only one DC-DC Buck-Boost&amp;nbsp;&lt;/div&gt;&lt;div&gt;module.&lt;/div&gt;" style="edgeLabel;html=1;align=center;verticalAlign=middle;resizable=0;points=[];fontColor=#fc0303;" vertex="1" connectable="0" parent="jncj1lacjCK77p8x0OnY-62">
          <mxGeometry x="-0.1979" y="4" relative="1" as="geometry">
            <mxPoint x="86" y="27" as="offset" />
          </mxGeometry>
        </mxCell>
        <mxCell id="jncj1lacjCK77p8x0OnY-64" style="edgeStyle=orthogonalEdgeStyle;rounded=0;orthogonalLoop=1;jettySize=auto;html=1;entryX=0;entryY=0.5;entryDx=0;entryDy=0;strokeColor=#FF0000;dashed=1;exitX=1;exitY=0.5;exitDx=0;exitDy=0;" edge="1" parent="1" source="jncj1lacjCK77p8x0OnY-110" target="jncj1lacjCK77p8x0OnY-47">
          <mxGeometry relative="1" as="geometry" />
        </mxCell>
        <mxCell id="jncj1lacjCK77p8x0OnY-126" style="edgeStyle=orthogonalEdgeStyle;rounded=0;orthogonalLoop=1;jettySize=auto;html=1;exitX=1;exitY=0.5;exitDx=0;exitDy=0;entryX=0;entryY=0.5;entryDx=0;entryDy=0;fillColor=#f8cecc;strokeColor=#b85450;" edge="1" parent="1" source="jncj1lacjCK77p8x0OnY-28" target="jncj1lacjCK77p8x0OnY-110">
          <mxGeometry relative="1" as="geometry" />
        </mxCell>
        <mxCell id="jncj1lacjCK77p8x0OnY-28" value="DC-DC" style="rounded=0;whiteSpace=wrap;html=1;fillColor=#f8cecc;strokeColor=#b85450;" vertex="1" parent="1">
          <mxGeometry x="200" y="271" width="120" height="40" as="geometry" />
        </mxCell>
        <mxCell id="jncj1lacjCK77p8x0OnY-89" style="edgeStyle=orthogonalEdgeStyle;rounded=0;orthogonalLoop=1;jettySize=auto;html=1;entryX=1;entryY=0.12;entryDx=0;entryDy=0;" edge="1" parent="1" target="jncj1lacjCK77p8x0OnY-88">
          <mxGeometry relative="1" as="geometry">
            <mxPoint x="740" y="290" as="sourcePoint" />
          </mxGeometry>
        </mxCell>
        <mxCell id="jncj1lacjCK77p8x0OnY-96" style="edgeStyle=orthogonalEdgeStyle;rounded=0;orthogonalLoop=1;jettySize=auto;html=1;entryX=1;entryY=0.12;entryDx=0;entryDy=0;" edge="1" parent="1" target="jncj1lacjCK77p8x0OnY-93">
          <mxGeometry relative="1" as="geometry">
            <mxPoint x="740" y="530" as="sourcePoint" />
          </mxGeometry>
        </mxCell>
        <mxCell id="jncj1lacjCK77p8x0OnY-105" style="edgeStyle=orthogonalEdgeStyle;rounded=0;orthogonalLoop=1;jettySize=auto;html=1;entryX=1;entryY=0.12;entryDx=0;entryDy=0;" edge="1" parent="1" target="jncj1lacjCK77p8x0OnY-104">
          <mxGeometry relative="1" as="geometry">
            <mxPoint x="740" y="810" as="sourcePoint" />
          </mxGeometry>
        </mxCell>
        <mxCell id="jncj1lacjCK77p8x0OnY-50" style="edgeStyle=orthogonalEdgeStyle;rounded=0;orthogonalLoop=1;jettySize=auto;html=1;exitX=1;exitY=0.5;exitDx=0;exitDy=0;entryX=0;entryY=0.5;entryDx=0;entryDy=0;opacity=50;" edge="1" parent="1" source="jncj1lacjCK77p8x0OnY-42" target="jncj1lacjCK77p8x0OnY-46">
          <mxGeometry relative="1" as="geometry" />
        </mxCell>
        <mxCell id="jncj1lacjCK77p8x0OnY-42" value="DC-DC" style="rounded=0;whiteSpace=wrap;html=1;fillColor=#ffe6cc;strokeColor=#d79b00;" vertex="1" parent="1">
          <mxGeometry x="350" y="511" width="120" height="40" as="geometry" />
        </mxCell>
        <mxCell id="jncj1lacjCK77p8x0OnY-51" style="edgeStyle=orthogonalEdgeStyle;rounded=0;orthogonalLoop=1;jettySize=auto;html=1;entryX=0;entryY=0.5;entryDx=0;entryDy=0;opacity=50;" edge="1" parent="1" source="jncj1lacjCK77p8x0OnY-43" target="jncj1lacjCK77p8x0OnY-47">
          <mxGeometry relative="1" as="geometry" />
        </mxCell>
        <mxCell id="jncj1lacjCK77p8x0OnY-43" value="DC-DC" style="rounded=0;whiteSpace=wrap;html=1;fillColor=#ffe6cc;strokeColor=#d79b00;" vertex="1" parent="1">
          <mxGeometry x="360" y="791" width="120" height="40" as="geometry" />
        </mxCell>
        <mxCell id="jncj1lacjCK77p8x0OnY-52" style="edgeStyle=orthogonalEdgeStyle;rounded=0;orthogonalLoop=1;jettySize=auto;html=1;entryX=0;entryY=0.5;entryDx=0;entryDy=0;" edge="1" parent="1" source="jncj1lacjCK77p8x0OnY-45">
          <mxGeometry relative="1" as="geometry">
            <mxPoint x="740" y="291" as="targetPoint" />
          </mxGeometry>
        </mxCell>
        <mxCell id="jncj1lacjCK77p8x0OnY-45" value="CN5711" style="rounded=0;whiteSpace=wrap;html=1;" vertex="1" parent="1">
          <mxGeometry x="540" y="271" width="120" height="40" as="geometry" />
        </mxCell>
        <mxCell id="jncj1lacjCK77p8x0OnY-53" style="edgeStyle=orthogonalEdgeStyle;rounded=0;orthogonalLoop=1;jettySize=auto;html=1;entryX=0;entryY=0.5;entryDx=0;entryDy=0;" edge="1" parent="1" source="jncj1lacjCK77p8x0OnY-46">
          <mxGeometry relative="1" as="geometry">
            <mxPoint x="740" y="531" as="targetPoint" />
          </mxGeometry>
        </mxCell>
        <mxCell id="jncj1lacjCK77p8x0OnY-46" value="CN5711" style="rounded=0;whiteSpace=wrap;html=1;" vertex="1" parent="1">
          <mxGeometry x="540" y="511" width="120" height="40" as="geometry" />
        </mxCell>
        <mxCell id="jncj1lacjCK77p8x0OnY-55" style="edgeStyle=orthogonalEdgeStyle;rounded=0;orthogonalLoop=1;jettySize=auto;html=1;entryX=0;entryY=0.5;entryDx=0;entryDy=0;" edge="1" parent="1" source="jncj1lacjCK77p8x0OnY-47">
          <mxGeometry relative="1" as="geometry">
            <mxPoint x="740" y="811" as="targetPoint" />
          </mxGeometry>
        </mxCell>
        <mxCell id="jncj1lacjCK77p8x0OnY-47" value="CN5711" style="rounded=0;whiteSpace=wrap;html=1;" vertex="1" parent="1">
          <mxGeometry x="540" y="791" width="120" height="40" as="geometry" />
        </mxCell>
        <mxCell id="jncj1lacjCK77p8x0OnY-56" value="" style="shape=image;verticalLabelPosition=bottom;labelBackgroundColor=default;verticalAlign=top;aspect=fixed;imageAspect=0;image=https://www.makerguides.com/wp-content/uploads/2024/04/image-53.png;" vertex="1" parent="1">
          <mxGeometry x="50" y="940" width="338.6" height="219" as="geometry" />
        </mxCell>
        <mxCell id="jncj1lacjCK77p8x0OnY-65" value="K2" style="text;html=1;align=center;verticalAlign=middle;whiteSpace=wrap;rounded=0;" vertex="1" parent="1">
          <mxGeometry x="780" y="533" width="60" height="30" as="geometry" />
        </mxCell>
        <mxCell id="jncj1lacjCK77p8x0OnY-66" value="K3" style="text;html=1;align=center;verticalAlign=middle;whiteSpace=wrap;rounded=0;" vertex="1" parent="1">
          <mxGeometry x="776.38" y="812.46" width="60" height="30" as="geometry" />
        </mxCell>
        <mxCell id="jncj1lacjCK77p8x0OnY-70" value="K4" style="text;html=1;align=center;verticalAlign=middle;whiteSpace=wrap;rounded=0;" vertex="1" parent="1">
          <mxGeometry x="1065" y="293" width="60" height="30" as="geometry" />
        </mxCell>
        <mxCell id="jncj1lacjCK77p8x0OnY-71" value="K5" style="text;html=1;align=center;verticalAlign=middle;whiteSpace=wrap;rounded=0;" vertex="1" parent="1">
          <mxGeometry x="1065" y="531" width="60" height="30" as="geometry" />
        </mxCell>
        <mxCell id="jncj1lacjCK77p8x0OnY-72" value="K6" style="text;html=1;align=center;verticalAlign=middle;whiteSpace=wrap;rounded=0;" vertex="1" parent="1">
          <mxGeometry x="1067.5" y="857" width="60" height="30" as="geometry" />
        </mxCell>
        <mxCell id="jncj1lacjCK77p8x0OnY-81" value="" style="pointerEvents=1;verticalLabelPosition=bottom;shadow=0;dashed=0;align=center;html=1;verticalAlign=top;shape=mxgraph.electrical.capacitors.capacitor_3;rotation=90;" vertex="1" parent="1">
          <mxGeometry x="670" y="308" width="50" height="20" as="geometry" />
        </mxCell>
        <mxCell id="jncj1lacjCK77p8x0OnY-82" value="" style="pointerEvents=1;verticalLabelPosition=bottom;shadow=0;dashed=0;align=center;html=1;verticalAlign=top;shape=mxgraph.electrical.capacitors.capacitor_3;rotation=90;" vertex="1" parent="1">
          <mxGeometry x="670" y="544" width="50" height="20" as="geometry" />
        </mxCell>
        <mxCell id="jncj1lacjCK77p8x0OnY-83" value="" style="pointerEvents=1;verticalLabelPosition=bottom;shadow=0;dashed=0;align=center;html=1;verticalAlign=top;shape=mxgraph.electrical.capacitors.capacitor_3;rotation=90;" vertex="1" parent="1">
          <mxGeometry x="670" y="828" width="50" height="20" as="geometry" />
        </mxCell>
        <mxCell id="jncj1lacjCK77p8x0OnY-84" value="&lt;font style=&quot;font-size: 9px;&quot;&gt;GND&lt;/font&gt;" style="pointerEvents=1;verticalLabelPosition=bottom;shadow=0;dashed=0;align=center;html=1;verticalAlign=top;shape=mxgraph.electrical.signal_sources.signal_ground;" vertex="1" parent="1">
          <mxGeometry x="680" y="861" width="30" height="20" as="geometry" />
        </mxCell>
        <mxCell id="jncj1lacjCK77p8x0OnY-85" value="&lt;font style=&quot;font-size: 9px;&quot;&gt;GND&lt;/font&gt;" style="pointerEvents=1;verticalLabelPosition=bottom;shadow=0;dashed=0;align=center;html=1;verticalAlign=top;shape=mxgraph.electrical.signal_sources.signal_ground;" vertex="1" parent="1">
          <mxGeometry x="680" y="576" width="30" height="20" as="geometry" />
        </mxCell>
        <mxCell id="jncj1lacjCK77p8x0OnY-86" value="&lt;font style=&quot;font-size: 9px;&quot;&gt;GND&lt;/font&gt;" style="pointerEvents=1;verticalLabelPosition=bottom;shadow=0;dashed=0;align=center;html=1;verticalAlign=top;shape=mxgraph.electrical.signal_sources.signal_ground;" vertex="1" parent="1">
          <mxGeometry x="680" y="341" width="30" height="20" as="geometry" />
        </mxCell>
        <mxCell id="jncj1lacjCK77p8x0OnY-90" style="edgeStyle=orthogonalEdgeStyle;rounded=0;orthogonalLoop=1;jettySize=auto;html=1;exitX=0;exitY=0.5;exitDx=0;exitDy=0;entryX=0.5;entryY=0;entryDx=0;entryDy=0;" edge="1" parent="1" source="jncj1lacjCK77p8x0OnY-88" target="hk8a2O4gQxyiNjNptd78-7">
          <mxGeometry relative="1" as="geometry">
            <mxPoint x="960" y="300" as="targetPoint" />
          </mxGeometry>
        </mxCell>
        <mxCell id="jncj1lacjCK77p8x0OnY-88" value="" style="html=1;shape=mxgraph.electrical.electro-mechanical.twoWaySwitch;aspect=fixed;elSwitchState=2;direction=west;" vertex="1" parent="1">
          <mxGeometry x="783.88" y="267" width="75" height="26" as="geometry" />
        </mxCell>
        <mxCell id="jncj1lacjCK77p8x0OnY-92" style="edgeStyle=orthogonalEdgeStyle;rounded=0;orthogonalLoop=1;jettySize=auto;html=1;entryX=1;entryY=0.88;entryDx=0;entryDy=0;exitX=0;exitY=0.5;exitDx=0;exitDy=0;" edge="1" parent="1" source="jncj1lacjCK77p8x0OnY-91" target="jncj1lacjCK77p8x0OnY-88">
          <mxGeometry relative="1" as="geometry" />
        </mxCell>
        <mxCell id="jncj1lacjCK77p8x0OnY-91" value="ADC CH0" style="shape=hexagon;perimeter=hexagonPerimeter2;whiteSpace=wrap;html=1;fixedSize=1;fontSize=8;fillColor=#f8cecc;strokeColor=#b85450;" vertex="1" parent="1">
          <mxGeometry x="846.13" y="230" width="70" height="30" as="geometry" />
        </mxCell>
        <mxCell id="jncj1lacjCK77p8x0OnY-97" style="edgeStyle=orthogonalEdgeStyle;rounded=0;orthogonalLoop=1;jettySize=auto;html=1;exitX=0;exitY=0.5;exitDx=0;exitDy=0;entryX=0.5;entryY=0;entryDx=0;entryDy=0;" edge="1" parent="1" source="jncj1lacjCK77p8x0OnY-93" target="hk8a2O4gQxyiNjNptd78-23">
          <mxGeometry relative="1" as="geometry">
            <mxPoint x="960" y="590" as="targetPoint" />
          </mxGeometry>
        </mxCell>
        <mxCell id="jncj1lacjCK77p8x0OnY-93" value="" style="html=1;shape=mxgraph.electrical.electro-mechanical.twoWaySwitch;aspect=fixed;elSwitchState=2;direction=west;" vertex="1" parent="1">
          <mxGeometry x="783.88" y="506.9285" width="75" height="26" as="geometry" />
        </mxCell>
        <mxCell id="jncj1lacjCK77p8x0OnY-94" style="edgeStyle=orthogonalEdgeStyle;rounded=0;orthogonalLoop=1;jettySize=auto;html=1;entryX=1;entryY=0.88;entryDx=0;entryDy=0;exitX=0;exitY=0.5;exitDx=0;exitDy=0;" edge="1" parent="1" source="jncj1lacjCK77p8x0OnY-95" target="jncj1lacjCK77p8x0OnY-93">
          <mxGeometry relative="1" as="geometry" />
        </mxCell>
        <mxCell id="jncj1lacjCK77p8x0OnY-95" value="ADC CH1" style="shape=hexagon;perimeter=hexagonPerimeter2;whiteSpace=wrap;html=1;fixedSize=1;fontSize=8;fillColor=#f8cecc;strokeColor=#b85450;" vertex="1" parent="1">
          <mxGeometry x="846.13" y="468" width="70" height="30" as="geometry" />
        </mxCell>
        <mxCell id="jncj1lacjCK77p8x0OnY-98" style="edgeStyle=orthogonalEdgeStyle;rounded=0;orthogonalLoop=1;jettySize=auto;html=1;entryX=1;entryY=0.12;entryDx=0;entryDy=0;" edge="1" parent="1" source="hk8a2O4gQxyiNjNptd78-7" target="rjjdqqys_Oreud0CuxLj-1">
          <mxGeometry relative="1" as="geometry">
            <Array as="points">
              <mxPoint x="961" y="310" />
              <mxPoint x="1015" y="310" />
              <mxPoint x="1015" y="346" />
            </Array>
          </mxGeometry>
        </mxCell>
        <mxCell id="jncj1lacjCK77p8x0OnY-99" style="edgeStyle=orthogonalEdgeStyle;rounded=0;orthogonalLoop=1;jettySize=auto;html=1;entryX=1;entryY=0.12;entryDx=0;entryDy=0;" edge="1" parent="1" source="hk8a2O4gQxyiNjNptd78-23" target="rjjdqqys_Oreud0CuxLj-6">
          <mxGeometry relative="1" as="geometry">
            <mxPoint x="1030" y="590" as="targetPoint" />
            <Array as="points">
              <mxPoint x="961" y="550" />
              <mxPoint x="1016" y="550" />
              <mxPoint x="1016" y="586" />
            </Array>
          </mxGeometry>
        </mxCell>
        <mxCell id="jncj1lacjCK77p8x0OnY-100" style="edgeStyle=orthogonalEdgeStyle;rounded=0;orthogonalLoop=1;jettySize=auto;html=1;entryX=1;entryY=0.12;entryDx=0;entryDy=0;" edge="1" parent="1" source="hk8a2O4gQxyiNjNptd78-37" target="rjjdqqys_Oreud0CuxLj-8">
          <mxGeometry relative="1" as="geometry">
            <Array as="points">
              <mxPoint x="961" y="840" />
              <mxPoint x="1020" y="840" />
              <mxPoint x="1020" y="905" />
            </Array>
          </mxGeometry>
        </mxCell>
        <mxCell id="jncj1lacjCK77p8x0OnY-108" style="edgeStyle=orthogonalEdgeStyle;rounded=0;orthogonalLoop=1;jettySize=auto;html=1;exitX=1;exitY=0.88;exitDx=0;exitDy=0;entryX=0;entryY=0.5;entryDx=0;entryDy=0;" edge="1" parent="1" source="jncj1lacjCK77p8x0OnY-104" target="jncj1lacjCK77p8x0OnY-106">
          <mxGeometry relative="1" as="geometry" />
        </mxCell>
        <mxCell id="jncj1lacjCK77p8x0OnY-109" style="edgeStyle=orthogonalEdgeStyle;rounded=0;orthogonalLoop=1;jettySize=auto;html=1;exitX=0;exitY=0.5;exitDx=0;exitDy=0;entryX=0.503;entryY=-0.166;entryDx=0;entryDy=0;entryPerimeter=0;" edge="1" parent="1" source="jncj1lacjCK77p8x0OnY-104" target="hk8a2O4gQxyiNjNptd78-37">
          <mxGeometry relative="1" as="geometry">
            <mxPoint x="960" y="830" as="targetPoint" />
          </mxGeometry>
        </mxCell>
        <mxCell id="jncj1lacjCK77p8x0OnY-104" value="" style="html=1;shape=mxgraph.electrical.electro-mechanical.twoWaySwitch;aspect=fixed;elSwitchState=2;direction=west;" vertex="1" parent="1">
          <mxGeometry x="776.38" y="786.4555" width="75" height="26" as="geometry" />
        </mxCell>
        <mxCell id="jncj1lacjCK77p8x0OnY-106" value="ADC CH1" style="shape=hexagon;perimeter=hexagonPerimeter2;whiteSpace=wrap;html=1;fixedSize=1;fontSize=8;fillColor=#f8cecc;strokeColor=#b85450;" vertex="1" parent="1">
          <mxGeometry x="846.13" y="745" width="70" height="30" as="geometry" />
        </mxCell>
        <mxCell id="jncj1lacjCK77p8x0OnY-110" value="INA226" style="rounded=0;whiteSpace=wrap;html=1;fillColor=#e1d5e7;strokeColor=#9673a6;" vertex="1" parent="1">
          <mxGeometry x="360" y="271" width="120" height="40" as="geometry" />
        </mxCell>
        <mxCell id="jncj1lacjCK77p8x0OnY-112" value="2.7&lt;div&gt;5W&lt;/div&gt;" style="pointerEvents=1;verticalLabelPosition=bottom;shadow=0;dashed=0;align=center;html=1;verticalAlign=top;shape=mxgraph.electrical.resistors.resistor_2;" vertex="1" parent="1">
          <mxGeometry x="1180" y="560" width="100" height="31" as="geometry" />
        </mxCell>
        <mxCell id="jncj1lacjCK77p8x0OnY-113" value="&lt;font style=&quot;font-size: 9px;&quot;&gt;GND&lt;/font&gt;" style="pointerEvents=1;verticalLabelPosition=bottom;shadow=0;dashed=0;align=center;html=1;verticalAlign=top;shape=mxgraph.electrical.signal_sources.signal_ground;" vertex="1" parent="1">
          <mxGeometry x="1300" y="651" width="30" height="20" as="geometry" />
        </mxCell>
        <mxCell id="jncj1lacjCK77p8x0OnY-114" style="edgeStyle=orthogonalEdgeStyle;rounded=0;orthogonalLoop=1;jettySize=auto;html=1;exitX=1;exitY=0.5;exitDx=0;exitDy=0;exitPerimeter=0;entryX=0.5;entryY=0;entryDx=0;entryDy=0;entryPerimeter=0;endArrow=none;endFill=0;" edge="1" parent="1" source="jncj1lacjCK77p8x0OnY-112" target="jncj1lacjCK77p8x0OnY-113">
          <mxGeometry relative="1" as="geometry" />
        </mxCell>
        <mxCell id="jncj1lacjCK77p8x0OnY-115" value="2.7&lt;div&gt;5W&lt;/div&gt;" style="pointerEvents=1;verticalLabelPosition=bottom;shadow=0;dashed=0;align=center;html=1;verticalAlign=top;shape=mxgraph.electrical.resistors.resistor_2;" vertex="1" parent="1">
          <mxGeometry x="1180" y="321" width="100" height="31" as="geometry" />
        </mxCell>
        <mxCell id="jncj1lacjCK77p8x0OnY-116" value="&lt;font style=&quot;font-size: 9px;&quot;&gt;GND&lt;/font&gt;" style="pointerEvents=1;verticalLabelPosition=bottom;shadow=0;dashed=0;align=center;html=1;verticalAlign=top;shape=mxgraph.electrical.signal_sources.signal_ground;" vertex="1" parent="1">
          <mxGeometry x="1300" y="410" width="30" height="20" as="geometry" />
        </mxCell>
        <mxCell id="jncj1lacjCK77p8x0OnY-117" style="edgeStyle=orthogonalEdgeStyle;rounded=0;orthogonalLoop=1;jettySize=auto;html=1;exitX=1;exitY=0.5;exitDx=0;exitDy=0;exitPerimeter=0;entryX=0.5;entryY=0;entryDx=0;entryDy=0;entryPerimeter=0;endArrow=none;endFill=0;" edge="1" parent="1" source="jncj1lacjCK77p8x0OnY-115" target="jncj1lacjCK77p8x0OnY-116">
          <mxGeometry relative="1" as="geometry" />
        </mxCell>
        <mxCell id="jncj1lacjCK77p8x0OnY-118" value="2.7&lt;div&gt;5W&lt;/div&gt;" style="pointerEvents=1;verticalLabelPosition=bottom;shadow=0;dashed=0;align=center;html=1;verticalAlign=top;shape=mxgraph.electrical.resistors.resistor_2;" vertex="1" parent="1">
          <mxGeometry x="1180" y="880" width="100" height="30" as="geometry" />
        </mxCell>
        <mxCell id="jncj1lacjCK77p8x0OnY-119" value="&lt;font style=&quot;font-size: 9px;&quot;&gt;GND&lt;/font&gt;" style="pointerEvents=1;verticalLabelPosition=bottom;shadow=0;dashed=0;align=center;html=1;verticalAlign=top;shape=mxgraph.electrical.signal_sources.signal_ground;" vertex="1" parent="1">
          <mxGeometry x="1300" y="970" width="30" height="20" as="geometry" />
        </mxCell>
        <mxCell id="jncj1lacjCK77p8x0OnY-120" style="edgeStyle=orthogonalEdgeStyle;rounded=0;orthogonalLoop=1;jettySize=auto;html=1;exitX=1;exitY=0.5;exitDx=0;exitDy=0;exitPerimeter=0;entryX=0.5;entryY=0;entryDx=0;entryDy=0;entryPerimeter=0;endArrow=none;endFill=0;" edge="1" parent="1" source="jncj1lacjCK77p8x0OnY-118" target="jncj1lacjCK77p8x0OnY-119">
          <mxGeometry relative="1" as="geometry" />
        </mxCell>
        <mxCell id="jncj1lacjCK77p8x0OnY-121" style="edgeStyle=orthogonalEdgeStyle;rounded=0;orthogonalLoop=1;jettySize=auto;html=1;exitX=0;exitY=0.5;exitDx=0;exitDy=0;entryX=0;entryY=0.5;entryDx=0;entryDy=0;entryPerimeter=0;" edge="1" parent="1" source="rjjdqqys_Oreud0CuxLj-6" target="jncj1lacjCK77p8x0OnY-112">
          <mxGeometry relative="1" as="geometry" />
        </mxCell>
        <mxCell id="jncj1lacjCK77p8x0OnY-124" style="edgeStyle=orthogonalEdgeStyle;rounded=0;orthogonalLoop=1;jettySize=auto;html=1;entryX=0;entryY=0.5;entryDx=0;entryDy=0;entryPerimeter=0;" edge="1" parent="1" source="rjjdqqys_Oreud0CuxLj-8" target="jncj1lacjCK77p8x0OnY-118">
          <mxGeometry relative="1" as="geometry" />
        </mxCell>
        <mxCell id="jncj1lacjCK77p8x0OnY-125" style="edgeStyle=orthogonalEdgeStyle;rounded=0;orthogonalLoop=1;jettySize=auto;html=1;exitX=0;exitY=0.5;exitDx=0;exitDy=0;entryX=0;entryY=0.5;entryDx=0;entryDy=0;entryPerimeter=0;" edge="1" parent="1" source="rjjdqqys_Oreud0CuxLj-1" target="jncj1lacjCK77p8x0OnY-115">
          <mxGeometry relative="1" as="geometry" />
        </mxCell>
      </root>
    </mxGraphModel>
  </diagram>
</mxfile>
